<svg xmlns="http://www.w3.org/2000/svg" xmlns:xlink="http://www.w3.org/1999/xlink" width="1920" height="1080" viewBox="0 0 1920 1080"><defs><style>.a,.e,.f{fill:none;}.b{fill:url(#a);}.c{mix-blend-mode:overlay;isolation:isolate;}.d{clip-path:url(#b);}.e,.f{stroke:#707070;}.e{stroke-miterlimit:10;}</style><linearGradient id="a" y1="0.5" x2="1" y2="0.5" gradientUnits="objectBoundingBox"><stop offset="0" stop-color="#004289"/><stop offset="1" stop-color="#0b8ed3"/></linearGradient><clipPath id="b"><rect class="a" width="1080" height="1920" transform="translate(0)"/></clipPath></defs><rect class="b" width="1080" height="1920" transform="translate(0 1080) rotate(-90)"/><g class="c" transform="translate(1920 0) rotate(90)"><g class="d"><g transform="translate(-784.788 -3003.592)"><ellipse class="e" cx="720.894" cy="1281.589" rx="720.894" ry="1281.589" transform="translate(1836.616 3078.162)"/><ellipse class="e" cx="720.894" cy="1281.589" rx="720.894" ry="1281.589" transform="translate(1835.503 3080.14)"/><ellipse class="e" cx="720.894" cy="1281.589" rx="720.894" ry="1281.589" transform="translate(1833.278 3084.096)"/><ellipse class="e" cx="720.894" cy="1281.589" rx="720.894" ry="1281.589" transform="translate(1829.963 3089.989)"/><ellipse class="e" cx="720.894" cy="1281.589" rx="720.894" ry="1281.589" transform="translate(1825.49 3097.861)"/><ellipse class="e" cx="720.894" cy="1281.589" rx="720.894" ry="1281.589" transform="translate(1819.904 3107.629)"/><ellipse class="e" cx="720.894" cy="1281.589" rx="720.894" ry="1281.589" transform="translate(1813.183 3119.416)"/><path class="f" d="M1001.241-280.348c552.97-154.832,875.726,167.923,720.894,720.894S993.517,1567.3,440.546,1722.135s-875.726-167.923-720.894-720.894S448.271-125.516,1001.241-280.348Z" transform="translate(1506.723 4414.649) rotate(-45)"/><path class="f" d="M1001.242-280.348c552.97-154.832,875.726,167.924,720.894,720.894S993.517,1567.3,440.546,1722.135s-875.726-167.923-720.894-720.894S448.271-125.516,1001.242-280.348Z" transform="translate(1497.708 4430.19) rotate(-45)"/><path class="f" d="M1001.241-280.348c552.97-154.832,875.726,167.923,720.894,720.894S993.517,1567.3,440.546,1722.135s-875.726-167.923-720.894-720.894S448.271-125.516,1001.241-280.348Z" transform="translate(1487.536 4447.628) rotate(-45)"/><path class="f" d="M1001.241-280.348c552.97-154.832,875.726,167.923,720.894,720.894S993.517,1567.3,440.546,1722.135s-875.726-167.923-720.894-720.894S448.271-125.516,1001.241-280.348Z" transform="translate(1476.206 4466.883) rotate(-45)"/><ellipse class="e" cx="720.894" cy="1281.589" rx="720.894" ry="1281.589" transform="translate(1762.276 3206.365)"/><ellipse class="e" cx="720.894" cy="1281.589" rx="720.894" ry="1281.589" transform="translate(1748.562 3229.212)"/><ellipse class="e" cx="720.894" cy="1281.589" rx="720.894" ry="1281.589" transform="translate(1733.599 3253.795)"/><ellipse class="e" cx="720.894" cy="1281.589" rx="720.894" ry="1281.589" transform="translate(1717.432 3280.033)"/><ellipse class="e" cx="720.894" cy="1281.589" rx="720.894" ry="1281.589" transform="translate(1700.039 3307.967)"/><ellipse class="e" cx="720.894" cy="1281.589" rx="720.894" ry="1281.589" transform="translate(1681.375 3337.434)"/><ellipse class="e" cx="720.894" cy="1281.589" rx="720.894" ry="1281.589" transform="translate(1661.462 3368.395)"/><path class="f" d="M1001.242-280.348c552.97-154.832,875.726,167.924,720.894,720.894S993.517,1567.3,440.546,1722.135s-875.726-167.923-720.894-720.894S448.271-125.516,1001.242-280.348Z" transform="translate(1341.65 4682.438) rotate(-45)"/><ellipse class="e" cx="720.894" cy="1281.589" rx="720.894" ry="1281.589" transform="translate(1617.753 3434.636)"/><ellipse class="e" cx="720.894" cy="1281.589" rx="720.894" ry="1281.589" transform="translate(1593.98 3469.714)"/><ellipse class="e" cx="720.894" cy="1281.589" rx="720.894" ry="1281.589" transform="translate(1568.89 3506.003)"/><ellipse class="e" cx="720.894" cy="1281.589" rx="720.894" ry="1281.589" transform="translate(1542.46 3543.382)"/><ellipse class="e" cx="720.894" cy="1281.589" rx="720.894" ry="1281.589" transform="translate(1514.759 3581.73)"/><path class="f" d="M1001.241-280.348c552.97-154.832,875.726,167.923,720.894,720.894S993.517,1567.3,440.546,1722.135s-875.726-167.923-720.894-720.894S448.271-125.516,1001.241-280.348Z" transform="translate(1187.136 4902.555) rotate(-45)"/><ellipse class="e" cx="720.894" cy="1281.589" rx="720.894" ry="1281.589" transform="translate(1455.405 3661.009)"/><ellipse class="e" cx="720.894" cy="1281.589" rx="720.894" ry="1281.589" transform="translate(1423.776 3701.577)"/><path class="f" d="M1001.241-280.348c552.97-154.832,875.726,167.923,720.894,720.894S993.517,1567.3,440.546,1722.135s-875.726-167.923-720.894-720.894S448.271-125.516,1001.241-280.348Z" transform="translate(1092.271 5024.219) rotate(-45)"/><ellipse class="e" cx="720.894" cy="1281.589" rx="720.894" ry="1281.589" transform="translate(1356.702 3784.005)"/><path class="f" d="M1001.241-280.348c552.97-154.832,875.726,167.923,720.894,720.894S993.517,1567.3,440.546,1722.135s-875.726-167.923-720.894-720.894S448.271-125.516,1001.241-280.348Z" transform="translate(1022.654 5107.131) rotate(-45)"/><ellipse class="e" cx="720.894" cy="1281.589" rx="720.894" ry="1281.589" transform="translate(1284.656 3867.038)"/><ellipse class="e" cx="720.894" cy="1281.589" rx="720.894" ry="1281.589" transform="translate(1246.805 3908.333)"/><ellipse class="e" cx="720.894" cy="1281.589" rx="720.894" ry="1281.589" transform="translate(1207.865 3949.143)"/><path class="f" d="M1001.241-280.348c552.97-154.832,875.726,167.923,720.894,720.894S993.517,1567.3,440.546,1722.135s-875.726-167.923-720.894-720.894S448.271-125.516,1001.241-280.348Z" transform="translate(869.207 5270.937) rotate(-45)"/><ellipse class="e" cx="720.894" cy="1281.589" rx="720.894" ry="1281.589" transform="translate(1126.736 4028.785)"/><ellipse class="e" cx="720.894" cy="1281.589" rx="720.894" ry="1281.589" transform="translate(1084.685 4067.052)"/><path class="f" d="M1001.241-280.348c552.97-154.832,875.726,167.923,720.894,720.894S993.517,1567.3,440.546,1722.135s-875.726-167.923-720.894-720.894S448.271-125.516,1001.241-280.348Z" transform="translate(743.144 5385.577) rotate(-45)"/><ellipse class="e" cx="720.894" cy="1281.589" rx="720.894" ry="1281.589" transform="translate(997.993 4139.389)"/><ellipse class="e" cx="720.894" cy="1281.589" rx="720.894" ry="1281.589" transform="translate(953.558 4172.933)"/><ellipse class="e" cx="720.894" cy="1281.589" rx="720.894" ry="1281.589" transform="translate(908.486 4204.297)"/><ellipse class="e" cx="720.894" cy="1281.589" rx="720.894" ry="1281.589" transform="translate(862.938 4233.361)"/><ellipse class="e" cx="720.894" cy="1281.589" rx="720.894" ry="1281.589" transform="translate(817.004 4259.639)"/><ellipse class="e" cx="720.894" cy="1281.589" rx="720.894" ry="1281.589" transform="translate(770.866 4282.971)"/><ellipse class="e" cx="720.894" cy="1281.589" rx="720.894" ry="1281.589" transform="translate(724.614 4302.952)"/><path class="f" d="M1001.241-280.348c552.97-154.832,875.726,167.923,720.894,720.894S993.517,1567.3,440.546,1722.135s-875.726-167.923-720.894-720.894S448.271-125.516,1001.241-280.348Z" transform="translate(379.848 5600.971) rotate(-45)"/><ellipse class="e" cx="720.894" cy="1281.589" rx="720.894" ry="1281.589" transform="translate(632.541 4331.814)"/><path class="f" d="M1001.241-280.348c552.97-154.832,875.726,167.923,720.894,720.894S993.517,1567.3,440.546,1722.135s-875.726-167.923-720.894-720.894S448.271-125.516,1001.241-280.348Z" transform="translate(288.457 5621.678) rotate(-45)"/><path class="f" d="M1001.242-280.348c552.97-154.832,875.726,167.924,720.894,720.894S993.517,1567.3,440.546,1722.135s-875.726-167.923-720.894-720.894S448.271-125.516,1001.242-280.348Z" transform="translate(243.612 5625.352) rotate(-45)"/><ellipse class="e" cx="720.894" cy="1281.589" rx="720.894" ry="1281.589" transform="translate(498.212 4342.551)"/><ellipse class="e" cx="720.894" cy="1281.589" rx="720.894" ry="1281.589" transform="translate(455.23 4336.214)"/><ellipse class="e" cx="720.894" cy="1281.589" rx="720.894" ry="1281.589" transform="translate(413.565 4324.387)"/><path class="f" d="M1001.241-280.348c552.97-154.832,875.726,167.923,720.894,720.894S993.517,1567.3,440.546,1722.135s-875.726-167.923-720.894-720.894S448.271-125.516,1001.241-280.348Z" transform="translate(74.794 5588.336) rotate(-45)"/><ellipse class="e" cx="720.894" cy="1281.589" rx="720.894" ry="1281.589" transform="translate(335.002 4283.052)"/><path class="f" d="M1001.242-280.348c552.97-154.832,875.726,167.924,720.894,720.894S993.517,1567.3,440.546,1722.135s-875.726-167.923-720.894-720.894S448.271-125.516,1001.242-280.348Z" transform="translate(0 5534.648) rotate(-45)"/><ellipse class="e" cx="720.894" cy="1281.589" rx="720.894" ry="1281.589" transform="translate(264.5 4216.488)"/><ellipse class="e" cx="720.894" cy="1281.589" rx="720.894" ry="1281.589" transform="translate(232.984 4173.135)"/><ellipse class="e" cx="720.894" cy="1281.589" rx="720.894" ry="1281.589" transform="translate(204.238 4122.758)"/><ellipse class="e" cx="720.894" cy="1281.589" rx="720.894" ry="1281.589" transform="translate(178.603 4065.236)"/><ellipse class="e" cx="720.894" cy="1281.589" rx="720.894" ry="1281.589" transform="translate(156.374 4000.367)"/><ellipse class="e" cx="720.894" cy="1281.589" rx="720.894" ry="1281.589" transform="translate(137.755 3928.112)"/><ellipse class="e" cx="720.894" cy="1281.589" rx="720.894" ry="1281.589" transform="translate(123.087 3848.348)"/><ellipse class="e" cx="720.894" cy="1281.589" rx="720.894" ry="1281.589" transform="translate(112.62 3761.117)"/><ellipse class="e" cx="720.894" cy="1281.589" rx="720.894" ry="1281.589" transform="translate(106.58 3666.337)"/><ellipse class="e" cx="720.894" cy="1281.589" rx="720.894" ry="1281.589" transform="translate(105.24 3564.251)"/><ellipse class="e" cx="720.894" cy="1281.589" rx="720.894" ry="1281.589" transform="translate(108.85 3454.819)"/><ellipse class="e" cx="720.894" cy="1281.589" rx="720.894" ry="1281.589" transform="translate(117.615 3338.403)"/><ellipse class="e" cx="720.894" cy="1281.589" rx="720.894" ry="1281.589" transform="translate(131.715 3215.084)"/><ellipse class="e" cx="720.894" cy="1281.589" rx="720.894" ry="1281.589" transform="translate(151.356 3085.307)"/><ellipse class="e" cx="720.894" cy="1281.589" rx="720.894" ry="1281.589" transform="translate(176.673 2949.394)"/><ellipse class="e" cx="720.894" cy="1281.589" rx="720.894" ry="1281.589" transform="translate(207.803 2807.83)"/><ellipse class="e" cx="720.894" cy="1281.589" rx="720.894" ry="1281.589" transform="translate(244.791 2661.099)"/><ellipse class="e" cx="720.894" cy="1281.589" rx="720.894" ry="1281.589" transform="translate(287.705 2509.887)"/><ellipse class="e" cx="720.894" cy="1281.589" rx="720.894" ry="1281.589" transform="translate(336.591 2354.76)"/><ellipse class="e" cx="720.894" cy="1281.589" rx="720.894" ry="1281.589" transform="translate(391.358 2196.605)"/><ellipse class="e" cx="720.894" cy="1281.589" rx="720.894" ry="1281.589" transform="translate(451.983 2036.109)"/><ellipse class="e" cx="720.894" cy="1281.589" rx="720.894" ry="1281.589" transform="translate(518.262 1874.201)"/><ellipse class="e" cx="720.894" cy="1281.589" rx="720.894" ry="1281.589" transform="translate(590.058 1711.848)"/><ellipse class="e" cx="720.894" cy="1281.589" rx="720.894" ry="1281.589" transform="translate(667.145 1550.101)"/><ellipse class="e" cx="720.894" cy="1281.589" rx="720.894" ry="1281.589" transform="translate(749.181 1389.968)"/><ellipse class="e" cx="720.894" cy="1281.589" rx="720.894" ry="1281.589" transform="translate(835.873 1232.621)"/><ellipse class="e" cx="720.894" cy="1281.589" rx="720.894" ry="1281.589" transform="translate(926.742 1079.31)"/><path class="f" d="M1001.241-280.348c552.97-154.832,875.726,167.923,720.894,720.894S993.517,1567.3,440.546,1722.135s-875.725-167.924-720.894-720.894S448.271-125.516,1001.241-280.348Z" transform="translate(722.754 2212.715) rotate(-45)"/><ellipse class="e" cx="720.894" cy="1281.589" rx="720.894" ry="1281.589" transform="translate(1119.175 789.441)"/><ellipse class="e" cx="720.894" cy="1281.589" rx="720.894" ry="1281.589" transform="translate(1219.604 655.466)"/><ellipse class="e" cx="720.894" cy="1281.589" rx="720.894" ry="1281.589" transform="translate(1321.962 530.492)"/><ellipse class="e" cx="720.894" cy="1281.589" rx="720.894" ry="1281.589" transform="translate(1425.592 415.771)"/><ellipse class="e" cx="720.894" cy="1281.589" rx="720.894" ry="1281.589" transform="translate(1529.699 312.636)"/><ellipse class="e" cx="720.894" cy="1281.589" rx="720.894" ry="1281.589" transform="translate(1633.488 222.175)"/><ellipse class="e" cx="720.894" cy="1281.589" rx="720.894" ry="1281.589" transform="translate(1736.119 145.722)"/><ellipse class="e" cx="720.894" cy="1281.589" rx="720.894" ry="1281.589" transform="translate(1836.684 84.244)"/><ellipse class="e" cx="720.894" cy="1281.589" rx="720.894" ry="1281.589" transform="translate(1934.297 38.913)"/><ellipse class="e" cx="720.894" cy="1281.589" rx="720.894" ry="1281.589" transform="translate(2027.982 10.576)"/><ellipse class="e" cx="720.894" cy="1281.589" rx="720.894" ry="1281.589" transform="translate(2116.807)"/><ellipse class="e" cx="720.894" cy="1281.589" rx="720.894" ry="1281.589" transform="translate(2199.843 7.952)"/><ellipse class="e" cx="720.894" cy="1281.589" rx="720.894" ry="1281.589" transform="translate(2276.112 34.957)"/><ellipse class="e" cx="720.894" cy="1281.589" rx="720.894" ry="1281.589" transform="translate(2344.684 81.378)"/><ellipse class="e" cx="720.894" cy="1281.589" rx="720.894" ry="1281.589" transform="translate(2404.696 147.377)"/><ellipse class="e" cx="720.894" cy="1281.589" rx="720.894" ry="1281.589" transform="translate(2455.285 232.872)"/><ellipse class="e" cx="720.894" cy="1281.589" rx="720.894" ry="1281.589" transform="translate(2495.634 337.784)"/><ellipse class="e" cx="720.894" cy="1281.589" rx="720.894" ry="1281.589" transform="translate(2525.061 461.546)"/><ellipse class="e" cx="720.894" cy="1281.589" rx="720.894" ry="1281.589" transform="translate(2542.885 603.514)"/><ellipse class="e" cx="720.894" cy="1281.589" rx="720.894" ry="1281.589" transform="translate(2548.607 762.719)"/><ellipse class="e" cx="720.894" cy="1281.589" rx="720.894" ry="1281.589" transform="translate(2541.795 937.988)"/><ellipse class="e" cx="720.894" cy="1281.589" rx="720.894" ry="1281.589" transform="translate(2522.109 1127.992)"/><path class="f" d="M1001.242-280.348c552.97-154.832,875.726,167.924,720.894,720.894S993.517,1567.3,440.546,1722.135s-875.726-167.923-720.894-720.894S448.271-125.516,1001.242-280.348Z" transform="translate(2190.876 2612.583) rotate(-45)"/><ellipse class="e" cx="720.894" cy="1281.589" rx="720.894" ry="1281.589" transform="translate(2443.796 1545.096)"/><ellipse class="e" cx="720.894" cy="1281.589" rx="720.894" ry="1281.589" transform="translate(2385.26 1768.24)"/><ellipse class="e" cx="720.894" cy="1281.589" rx="720.894" ry="1281.589" transform="translate(2314.167 1998.044)"/><ellipse class="e" cx="720.894" cy="1281.589" rx="720.894" ry="1281.589" transform="translate(2231.018 2232.007)"/><ellipse class="e" cx="720.894" cy="1281.589" rx="720.894" ry="1281.589" transform="translate(2136.471 2467.341)"/><ellipse class="e" cx="720.894" cy="1281.589" rx="720.894" ry="1281.589" transform="translate(2031.319 2701.344)"/><path class="f" d="M1001.241-280.348c552.97-154.832,875.726,167.923,720.894,720.894S993.517,1567.3,440.546,1722.135s-875.726-167.923-720.894-720.894S448.271-125.516,1001.241-280.348Z" transform="translate(1618.073 4212.576) rotate(-45)"/></g></g></g></svg>